# xmcd
#
# Track frame offsets:
#	150
#	16167
#	34237
#	51457
#	68677
#	88227
#	103762
#	120215
#	144537
#	167087
#	182437
#	199250
#	214725
#	236962
#	254775
#	270312
#	284350
#
# Disc length: 4053 seconds
#
# Revision: 1
# Processed by: cddbd v1.5.1PL0 Copyright (c) Steve Scherf et al.
# Submitted via: CDex 1.50Beta5
#
DISCID=fd0fd311
DTITLE=エディ・マネー - ベスト・オブ・80’sアメリカン・ヒッツ
DYEAR=1996
DGENRE=Rock
TTITLE0=エディ・マネー/テイク・ミー・ホーム・トゥナイト
TTITLE1=パティ・スマイス/ウォーリア
TTITLE2=トミー・ツートーン/ジェニーズ・ナンバー867-5309
TTITLE3=ケニー・ロギンス/フットルース
TTITLE4=ドン・ジョンソン/ハートビート
TTITLE5=ランディー・マイズナー/ディープ・インサイト・マイ・ハート
TTITLE6=カーラ・ボノフ/パーソナリー
TTITLE7=ダン・フォーゲルバーグ/懐かしき恋人の歌
TTITLE8=TOTO/アフリカ
TTITLE9=ファビュラス・サンダーバーズ/タフ・イナフ
TTITLE10=ラヴァーボーイ/それ行け!ウィークエンド
TTITLE11=メン・アット・ワーク/ノックは夜中に
TTITLE12=REOスピードワゴン/涙のフィーリング
TTITLE13=シンディ・ローパー/ガールズ・ジャスト・ウォント・トゥ・ハブ・ファン
TTITLE14=フーターズ/デイ・バイ・デイ
TTITLE15=バングルス/マニック・マンデイ
TTITLE16=ティル・チューズデイ/愛のボイシズ
EXTD=
EXTT0=
EXTT1=
EXTT2=
EXTT3=
EXTT4=
EXTT5=
EXTT6=
EXTT7=
EXTT8=
EXTT9=
EXTT10=
EXTT11=
EXTT12=
EXTT13=
EXTT14=
EXTT15=
EXTT16=
PLAYORDER=
